<?xml version="1.0" standalone="no"?>
<!DOCTYPE svg PUBLIC "-//W3C//DTD SVG 20010904//EN"
 "http://www.w3.org/TR/2001/REC-SVG-20010904/DTD/svg10.dtd">
<svg version="1.0" xmlns="http://www.w3.org/2000/svg"
 width="500.000000pt" height="500.000000pt" viewBox="0 0 500.000000 500.000000"
 preserveAspectRatio="xMidYMid meet">
<metadata>
Created by potrace 1.14, written by Peter Selinger 2001-2017
</metadata>
<g transform="translate(0.000000,500.000000) scale(0.100000,-0.100000)"
fill="#000000" stroke="none">
<path d="M2270 4989 c-866 -82 -1619 -595 -2004 -1365 -337 -673 -353 -1435
-45 -2137 110 -249 282 -500 493 -715 396 -406 891 -651 1481 -734 116 -16
474 -16 590 0 496 70 940 262 1295 560 490 411 790 961 882 1617 16 117 16
473 -1 595 -63 461 -244 895 -521 1245 -144 182 -371 392 -568 523 -467 314
-1052 463 -1602 411z m570 -74 c532 -81 1027 -335 1395 -716 357 -369 582
-830 662 -1349 25 -163 24 -520 -1 -685 -145 -943 -802 -1705 -1706 -1978
-238 -72 -430 -100 -690 -100 -285 -1 -512 34 -765 118 -734 241 -1309 816
-1550 1550 -84 253 -119 480 -118 765 0 260 28 452 100 690 284 941 1108 1620
2088 1720 125 12 459 4 585 -15z"/>
<path d="M2200 4865 c-527 -65 -1004 -299 -1381 -674 -196 -196 -330 -383
-453 -632 -151 -305 -229 -615 -243 -964 -25 -659 227 -1297 698 -1765 465
-463 1101 -712 1754 -687 349 14 659 92 964 243 249 123 436 257 632 453 384
386 621 882 679 1423 15 142 12 395 -5 538 -134 1082 -983 1931 -2065 2065
-149 18 -431 18 -580 0z m470 -135 c0 -5 -11 -12 -25 -16 -35 -9 -39 -34 -32
-211 l7 -153 -24 0 c-16 0 -66 41 -166 137 l-142 137 3 -117 c4 -125 9 -137
57 -137 12 0 22 -4 22 -9 0 -12 -52 -21 -121 -21 -60 0 -78 13 -36 26 12 4 25
12 29 18 10 14 9 207 0 261 -6 34 -12 41 -40 50 -49 14 -33 30 34 32 l59 3
135 -124 135 -124 3 78 c3 97 -7 144 -34 148 -34 6 -45 12 -39 22 8 13 175 13
175 0z m263 -40 c57 -11 78 -30 33 -30 -29 0 -36 -19 -66 -175 -25 -139 -25
-144 5 -155 31 -12 33 -34 3 -27 -13 3 -52 11 -88 17 -36 6 -73 13 -82 16 -26
8 -22 24 6 24 13 0 28 6 33 13 12 14 53 229 53 276 0 24 -5 34 -20 38 -11 3
-20 11 -20 18 0 9 11 11 43 4 23 -4 68 -13 100 -19z m-878 -14 l-27 -22 25
-94 c43 -160 41 -190 -17 -245 -50 -49 -119 -71 -194 -62 -64 7 -91 42 -132
170 -37 116 -43 127 -76 127 -48 0 -22 17 64 44 48 14 93 26 100 26 19 0 14
-17 -8 -23 -26 -7 -25 -33 4 -127 44 -142 75 -177 147 -167 62 8 99 48 99 107
0 46 -18 120 -47 193 -13 32 -19 37 -47 37 -61 0 -48 15 36 42 91 29 115 27
73 -6z m1104 -39 c47 -18 87 -39 89 -45 3 -9 -4 -11 -23 -6 l-28 7 8 -134 c4
-74 8 -135 10 -137 3 -4 169 167 174 180 2 6 -7 19 -19 28 -13 9 -19 20 -14
22 13 8 147 -45 152 -60 3 -9 -3 -11 -20 -7 -29 7 -62 -18 -222 -168 -68 -64
-109 -95 -119 -91 -18 6 -24 45 -32 209 -8 142 -18 195 -39 207 -16 9 -22 28
-8 28 4 0 45 -15 91 -33z m517 -243 c156 -100 150 -93 124 -137 -28 -48 -40
-47 -40 3 0 35 -5 43 -42 70 -22 16 -47 30 -53 30 -7 0 -28 -23 -45 -51 -36
-56 -34 -63 25 -93 26 -14 32 -14 52 -1 36 24 38 -1 3 -56 -34 -52 -57 -60
-52 -16 3 20 -5 31 -35 51 -21 14 -41 26 -44 26 -14 0 -70 -103 -67 -123 2
-14 21 -31 56 -49 52 -27 54 -27 93 -11 22 8 43 13 46 9 11 -11 -60 -77 -77
-71 -27 11 -280 177 -280 185 0 4 17 7 37 6 36 -1 39 2 100 94 97 146 101 155
80 178 -19 20 -22 32 -9 32 5 0 62 -34 128 -76z m-2304 22 c-11 -11 -24 -30
-30 -41 -8 -17 -52 -167 -52 -179 0 -10 245 -48 276 -43 52 9 48 -6 -15 -50
l-57 -41 -114 24 c-62 14 -117 23 -121 22 -5 -2 8 -25 29 -53 34 -45 42 -50
75 -49 20 1 37 -2 37 -5 0 -11 -161 -123 -168 -117 -3 4 0 12 6 18 7 7 12 20
12 31 0 22 -156 243 -177 251 -8 3 -23 1 -33 -4 -11 -6 -21 -6 -25 -1 -6 11
153 126 162 117 4 -4 1 -12 -5 -18 -19 -19 -14 -40 25 -96 43 -63 45 -61 67
57 21 110 21 114 -3 101 -11 -5 -22 -6 -25 -1 -7 11 135 112 147 104 4 -3 0
-15 -11 -27z m2680 -318 c126 -138 141 -177 88 -230 -26 -25 -37 -29 -68 -26
-20 3 -44 7 -51 9 -18 5 -42 -101 -39 -176 1 -27 -2 -50 -7 -49 -6 0 -25 19
-42 43 -38 49 -41 82 -18 172 14 51 14 62 2 79 -13 19 -16 18 -61 -30 -46 -49
-47 -52 -32 -75 9 -13 12 -26 8 -29 -12 -7 -158 142 -149 151 5 4 17 2 27 -5
11 -7 25 -12 31 -12 7 0 60 48 120 106 98 97 107 109 98 131 -21 57 -2 44 93
-59z m-1237 23 c55 -12 143 -37 195 -54 l95 -33 -1 -54 c-5 -190 -196 -393
-429 -455 -272 -72 -578 31 -718 242 -51 78 -78 149 -80 219 l-2 48 50 19 c79
30 182 58 290 78 142 26 456 21 600 -10z m-1868 -125 c24 -21 28 -31 26 -75
-1 -46 1 -52 23 -57 14 -4 67 -4 120 -2 l95 4 -46 -46 -45 -45 -100 0 c-125 0
-137 -10 -77 -59 48 -39 58 -42 87 -24 41 26 29 -4 -31 -76 -35 -42 -67 -76
-71 -76 -4 0 -4 15 -1 33 5 32 1 37 -83 108 -148 125 -143 122 -170 104 -57
-37 -45 -10 42 95 117 139 172 167 231 116z m883 -11 c0 -23 -3 -25 -50 -25
-27 0 -50 2 -50 5 0 6 78 43 93 44 4 1 7 -10 7 -24z m1375 -23 c-54 -4 -59 -1
-50 27 6 20 6 20 52 -2 l46 -22 -48 -3z m-1516 -91 c31 -6 27 -9 -75 -49 -60
-24 -131 -52 -158 -63 -44 -18 -48 -18 -35 -3 8 10 49 44 92 75 83 62 73 60
176 40z m1789 -50 c128 -95 125 -95 -88 -8 -47 19 -94 38 -105 42 -17 7 -15 9
15 15 81 16 95 13 178 -49z m-1623 21 c14 -10 39 -61 33 -67 -3 -3 -60 -19
-128 -35 -68 -17 -185 -54 -259 -84 -75 -29 -158 -58 -186 -65 -27 -7 -56 -15
-63 -17 -20 -6 1 26 50 73 35 33 76 55 213 111 94 38 184 74 200 80 35 12 125
15 140 4z m1574 -69 c190 -76 197 -80 253 -137 32 -33 56 -61 54 -63 -6 -6
-157 41 -246 77 -109 45 -189 71 -309 99 -46 11 -85 22 -88 25 -9 8 27 65 44
69 59 15 103 4 292 -70z m909 -47 c39 -21 68 -55 93 -111 l22 -49 -33 -29
c-41 -37 -58 -24 -33 27 17 36 17 39 -2 74 -16 29 -27 38 -51 40 -54 5 -61
-18 -49 -148 7 -72 6 -77 -19 -107 -72 -86 -199 -21 -247 125 -11 33 -10 36
24 69 41 42 65 37 42 -7 -18 -35 -19 -109 -2 -131 23 -30 55 -41 80 -28 35 19
37 28 31 131 l-7 97 31 30 c34 35 75 40 120 17z m-2543 -45 c-69 -68 -909
-830 -912 -827 -5 5 45 180 71 249 14 37 42 100 62 140 40 80 154 256 178 276
8 7 48 19 88 28 40 8 136 39 213 70 128 50 288 100 325 102 8 1 -2 -16 -25
-38z m1510 -1 c50 -16 131 -45 180 -65 99 -40 217 -75 253 -75 29 0 59 -33
127 -135 95 -146 172 -317 215 -484 l19 -73 -27 24 c-15 14 -228 208 -474 432
-247 224 -448 409 -448 411 0 7 61 -7 155 -35z m-1296 -53 c-12 -11 -856 -604
-869 -611 -34 -20 22 25 419 333 l414 322 21 -20 c11 -11 18 -22 15 -24z
m1421 -285 c395 -307 442 -344 409 -326 -12 7 -847 594 -868 611 -9 7 32 42
43 36 6 -4 193 -148 416 -321z m-1280 195 c0 -2 -9 -45 -20 -97 -19 -86 -25
-97 -72 -149 -75 -82 -110 -139 -189 -311 -39 -85 -89 -179 -111 -208 -65 -87
-169 -165 -327 -245 -195 -98 -254 -159 -373 -382 -26 -49 -48 -87 -48 -84 0
16 75 191 111 259 52 97 73 118 259 263 85 66 177 139 203 161 61 51 124 146
172 261 116 278 131 305 226 409 57 62 135 125 157 126 6 0 12 -1 12 -3z m766
-47 c70 -57 164 -171 200 -242 14 -27 45 -99 71 -161 105 -257 134 -294 388
-487 187 -142 231 -187 283 -287 37 -72 112 -247 112 -262 0 -3 -24 39 -53 94
-114 217 -182 288 -347 367 -130 63 -206 114 -289 192 -78 75 -92 97 -167 261
-76 168 -109 224 -185 314 -58 68 -65 82 -81 155 -10 45 -18 87 -18 94 0 23
25 12 86 -38z m-2042 -70 c-38 -83 -54 -98 -54 -55 0 24 -3 25 -52 25 l-53 0
-24 -56 -24 -55 33 -34 34 -35 23 22 c32 30 30 8 -7 -69 -29 -62 -58 -87 -46
-40 7 30 -9 55 -133 207 -55 68 -101 133 -101 144 0 18 6 19 193 12 183 -6
195 -6 218 13 36 30 35 9 -7 -79z m1450 52 c4 -7 -277 -849 -288 -860 -3 -3
-8 -3 -9 -1 -2 2 52 199 121 437 118 406 127 432 148 432 13 0 25 -3 28 -8z
m497 -407 c139 -482 134 -463 119 -449 -20 20 -297 849 -286 857 6 4 19 6 30
5 16 -3 38 -69 137 -413z m-872 348 c-76 -81 -108 -137 -182 -320 -101 -245
-139 -293 -395 -487 -78 -60 -162 -128 -185 -152 -43 -43 -127 -193 -162 -287
-33 -89 -26 -40 11 74 64 199 72 211 294 429 109 107 211 215 227 240 17 25
55 106 86 180 95 227 86 215 217 292 63 37 117 68 120 68 2 0 -12 -17 -31 -37z
m1174 -33 c121 -70 115 -62 192 -250 84 -207 107 -242 240 -369 309 -298 320
-312 389 -530 37 -116 43 -160 11 -74 -10 27 -40 93 -68 148 -62 121 -107 168
-307 320 -239 182 -276 228 -370 465 -57 142 -100 223 -162 299 -28 36 -48 62
-42 59 5 -3 58 -33 117 -68z m-658 -136 c-20 -242 -19 -303 14 -489 16 -88 25
-164 21 -168 -4 -5 -30 3 -57 17 l-50 25 -28 113 c-20 80 -29 148 -33 233 l-5
120 73 168 c41 92 75 165 77 164 2 -2 -4 -84 -12 -183z m111 19 l58 -133 -14
-83 c-19 -108 -17 -225 4 -321 10 -43 15 -80 12 -83 -3 -3 -28 -14 -55 -23
l-50 -17 -11 51 c-6 28 -20 114 -32 191 -20 137 -20 145 -4 345 9 113 16 212
16 220 0 24 12 1 76 -147z m1988 66 c38 -95 40 -118 6 -81 -12 12 -23 22 -25
22 -11 0 -261 -103 -272 -112 -7 -6 -13 -23 -13 -39 0 -16 -3 -29 -7 -29 -11
0 -85 191 -78 199 4 3 15 -5 25 -18 l18 -25 63 24 c35 12 101 38 146 57 77 32
83 37 83 64 0 51 17 32 54 -62z m-2510 -256 c-24 -115 -56 -270 -71 -347 -32
-157 -31 -156 -131 -156 -52 0 -86 6 -149 25 -22 7 -23 4 -23 -39 0 -45 0 -45
-26 -36 -46 18 -54 13 -54 -30 0 -38 -1 -39 -26 -30 -35 14 -34 15 -34 -30 0
-33 -3 -40 -20 -40 -20 0 -20 -7 -20 -596 l0 -595 -32 23 c-66 46 -210 193
-281 287 -82 107 -127 180 -183 293 l-38 76 87 176 c92 184 168 298 238 353
23 18 89 56 146 83 117 56 193 105 274 179 73 65 112 126 184 286 70 154 102
211 157 276 23 27 42 49 43 49 1 0 -17 -93 -41 -207z m1655 -35 c207 -121 381
-225 387 -231 18 -19 34 -157 34 -297 0 -139 -18 -284 -51 -415 -19 -75 -39
-118 -39 -84 0 25 -68 253 -100 338 -47 122 -95 184 -257 336 -232 216 -242
229 -342 473 -44 107 -47 121 -29 111 12 -7 191 -111 397 -231z m-2048 185
c-55 -138 -95 -233 -118 -273 -14 -25 -115 -134 -233 -250 -169 -166 -214
-216 -238 -265 -30 -61 -82 -213 -121 -354 -11 -40 -22 -75 -24 -77 -5 -5 -43
140 -57 216 -31 164 -29 504 3 568 8 16 137 97 402 253 215 125 393 228 397
229 4 0 -1 -21 -11 -47z m1311 -56 c22 -32 60 -104 84 -158 81 -184 115 -242
178 -307 81 -85 156 -137 301 -210 144 -71 205 -123 275 -233 59 -92 190 -355
190 -382 0 -20 -55 -133 -108 -222 -82 -138 -249 -328 -370 -423 l-42 -34 0
596 c0 589 0 596 -20 596 -17 0 -20 7 -20 41 0 37 -2 40 -22 34 -40 -12 -43
-11 -46 28 -3 40 -7 42 -46 27 -26 -9 -26 -9 -26 36 0 43 -1 46 -22 39 -86
-25 -161 -32 -225 -19 -28 5 -31 11 -42 67 -6 34 -38 189 -70 345 -58 280 -58
283 -34 260 14 -13 43 -49 65 -81z m1686 -79 c-1 -45 51 -311 63 -323 17 -17
9 -24 -43 -40 -62 -18 -58 -18 -58 -1 0 7 11 21 25 30 21 14 25 24 25 66 0 27
-3 51 -7 53 -13 6 -295 -51 -307 -63 -5 -5 -10 -22 -11 -38 0 -53 -20 -22 -37
60 -20 96 -22 138 -8 138 6 0 10 -9 10 -20 0 -36 29 -38 160 -14 188 36 173
29 166 72 -8 40 -37 72 -67 72 -10 0 -19 6 -19 14 0 15 23 22 77 25 29 1 31
-1 31 -31z m-3960 -43 c2 -2 -11 -76 -29 -164 -23 -112 -38 -161 -47 -161 -9
0 -11 7 -7 19 5 16 -16 51 -31 51 -2 0 -56 11 -120 25 -147 32 -160 32 -177
-1 -25 -47 -28 -9 -7 91 11 54 20 99 20 102 0 2 4 1 10 -2 6 -3 10 -17 10 -31
0 -16 8 -28 23 -34 21 -9 257 -60 277 -60 13 0 25 32 35 88 6 39 4 45 -25 72
-43 40 -30 56 23 29 23 -12 44 -23 45 -24z m2071 -220 c43 -99 78 -180 77
-180 0 -1 -39 2 -85 5 l-85 5 -14 50 c-16 57 -22 283 -8 330 l8 30 14 -30 c8
-16 50 -111 93 -210z m-465 66 c6 -64 34 -198 52 -244 5 -13 -1 -14 -38 -5
-24 5 -76 8 -116 6 -39 -2 -71 -1 -70 3 119 275 154 346 159 331 3 -9 9 -50
13 -91z m-1726 -246 c50 -15 51 -16 59 -63 16 -92 9 -183 -19 -243 -33 -72
-74 -102 -148 -107 -99 -7 -179 57 -210 168 -11 41 -13 200 -2 217 9 15 94 21
99 7 2 -6 -8 -16 -21 -22 -38 -17 -57 -54 -58 -111 0 -67 25 -110 82 -139 112
-58 261 20 260 135 -1 46 -35 110 -69 128 -17 8 -31 22 -31 30 0 18 -4 18 58
0z m4142 -12 c0 -62 -13 -163 -21 -163 -5 0 -9 9 -9 20 0 11 -3 20 -7 20 -5 0
-41 -20 -80 -43 l-73 -43 73 -42 72 -42 9 25 c18 47 27 25 24 -57 -2 -49 -7
-82 -13 -81 -5 1 -12 10 -13 20 -6 27 -38 58 -112 109 -59 40 -71 45 -130 46
-75 3 -90 -4 -90 -38 0 -15 -6 -24 -16 -24 -12 0 -15 6 -10 23 3 12 6 64 6
115 0 54 4 92 10 92 6 0 10 -9 10 -19 0 -35 27 -51 88 -51 51 0 66 5 133 48
99 62 114 74 122 95 10 27 27 20 27 -10z m-2355 -30 c28 -9 67 -24 88 -35 33
-16 40 -17 60 -4 51 33 152 58 237 58 73 0 99 -5 185 -37 85 -30 113 -36 182
-36 45 0 98 3 118 7 l35 6 0 -620 0 -621 -37 -7 c-79 -16 -175 -8 -263 20
-148 48 -290 45 -423 -9 -58 -23 -59 -23 -101 -5 -134 57 -285 62 -436 14 -88
-27 -187 -35 -262 -20 l-38 7 0 619 0 620 63 -6 c34 -3 67 -7 72 -9 24 -6 131
15 195 40 120 46 217 51 325 18z m-694 -113 c5 0 9 -238 9 -590 l0 -589 23
-13 c12 -6 63 -14 113 -16 81 -4 104 -1 197 27 83 25 123 31 193 31 129 0 274
-44 274 -83 0 -22 0 -22 -115 13 -47 14 -99 21 -157 21 -90 0 -119 -5 -253
-48 -63 -20 -101 -25 -175 -25 -52 0 -107 5 -122 11 l-28 11 0 631 c0 571 1
631 16 625 9 -3 20 -6 25 -6z m1677 -622 l-3 -632 -30 -8 c-16 -5 -70 -9 -120
-9 -76 -1 -109 5 -210 36 -161 48 -271 51 -400 7 l-86 -29 3 26 c5 39 112 73
248 79 97 4 115 1 214 -28 96 -29 118 -32 201 -28 150 6 135 -62 135 624 0
625 -3 586 43 593 4 0 6 -283 5 -631z m-1748 -38 l0 -600 27 -17 c22 -15 49
-18 148 -18 109 0 129 3 220 33 123 41 222 50 320 29 90 -20 165 -52 165 -72
0 -20 -1 -19 -95 12 -66 21 -99 26 -190 26 -97 1 -123 -3 -225 -33 -103 -31
-128 -35 -235 -35 -66 0 -132 3 -147 8 l-28 7 0 630 c0 623 0 630 20 630 20 0
20 -7 20 -600z m1820 -24 c0 -556 -2 -625 -16 -637 -10 -8 -56 -14 -127 -17
-106 -4 -120 -2 -252 34 -123 33 -153 38 -245 37 -100 0 -127 -5 -262 -50 -12
-4 -18 0 -18 11 0 21 63 50 156 72 96 23 194 14 324 -27 95 -31 116 -34 220
-33 64 0 127 5 143 12 l27 12 0 598 c0 329 3 602 7 605 3 4 15 7 25 7 17 0 18
-26 18 -624z m1100 217 c0 -13 16 -40 35 -62 19 -21 35 -41 35 -44 0 -3 -18
-8 -40 -12 -26 -4 -54 -19 -77 -41 -20 -19 -37 -34 -39 -34 -2 0 -4 12 -4 26
0 32 -15 61 -52 100 l-30 32 50 12 c31 7 60 22 78 41 30 31 44 25 44 -18z
m-3953 -52 c12 -6 33 -11 47 -11 37 0 39 -14 6 -45 -18 -17 -32 -43 -36 -64
-10 -65 -12 -66 -53 -28 -25 22 -53 37 -80 42 l-42 7 34 37 c22 25 36 52 41
81 l7 43 27 -25 c15 -14 37 -31 49 -37z m3670 -248 c-2 -26 6 -32 115 -87 111
-56 119 -59 136 -43 10 9 21 17 25 17 8 0 -66 -160 -75 -160 -4 0 -8 12 -10
28 -3 23 -17 34 -103 79 -107 56 -140 63 -161 36 -28 -37 -15 16 21 87 37 74
55 88 52 43z m-3429 -73 l33 -51 -61 -111 c-33 -61 -59 -112 -58 -114 2 -1 57
4 123 11 66 7 123 11 126 10 3 -2 19 -27 37 -54 22 -35 27 -51 17 -51 -8 0
-17 5 -21 11 -10 18 -36 5 -138 -67 -91 -63 -97 -70 -92 -96 9 -46 -10 -32
-58 44 -42 65 -54 100 -24 70 21 -21 41 -13 133 48 50 33 86 60 80 60 -5 0
-68 -7 -140 -15 -71 -8 -133 -15 -137 -15 -18 0 -5 33 43 117 92 158 92 151
-8 89 -86 -53 -88 -56 -86 -90 1 -20 -1 -36 -5 -36 -9 1 -84 121 -78 127 2 2
13 -1 25 -9 18 -11 30 -8 96 25 42 20 94 49 116 63 37 23 41 29 35 55 -8 42 4
36 42 -21z m3326 -115 c-5 -22 3 -30 78 -78 147 -95 144 -93 166 -74 37 33 30
4 -16 -69 -50 -79 -65 -91 -56 -45 6 27 1 31 -98 95 -58 36 -114 66 -125 66
-21 0 -43 -41 -43 -82 0 -11 28 -85 62 -164 45 -106 58 -148 50 -156 -8 -8
-54 2 -171 36 -169 50 -176 50 -215 7 -14 -15 -20 -41 -24 -95 l-4 -73 83 -23
c94 -25 114 -27 147 -16 39 13 23 -7 -48 -61 -67 -52 -107 -70 -80 -38 8 10 9
19 4 24 -8 7 -100 41 -111 41 -2 0 -3 -28 -1 -62 3 -59 5 -63 26 -61 34 4 26
-8 -36 -54 -58 -42 -89 -48 -54 -9 15 16 22 42 27 107 l7 85 -75 22 c-93 27
-111 27 -153 2 -23 -15 -39 -36 -53 -75 -39 -104 -43 -95 57 -144 66 -32 97
-42 121 -39 52 8 35 -10 -50 -53 -81 -40 -104 -44 -79 -13 12 13 11 17 -1 25
-20 14 -87 49 -93 49 -2 0 -7 -14 -10 -30 -19 -95 -19 -88 11 -92 25 -3 21 -7
-44 -41 -40 -20 -74 -33 -77 -28 -3 5 5 16 18 24 17 12 29 37 45 95 11 43 21
82 21 86 0 4 -37 25 -82 46 -74 36 -87 39 -118 30 -19 -6 -40 -13 -46 -18 -18
-11 -86 -131 -80 -141 17 -27 156 -121 179 -121 43 0 40 -18 -5 -30 -24 -6
-59 -15 -78 -21 -19 -5 -44 -9 -55 -9 l-20 1 20 15 c19 15 19 17 -25 55 -25
21 -48 39 -52 39 -6 0 -48 -102 -48 -115 0 -3 9 -5 20 -5 43 0 17 -18 -47 -32
-79 -17 -97 -13 -54 13 19 12 43 44 66 88 19 39 35 72 35 75 0 12 -150 116
-168 116 -47 0 -18 17 63 37 47 11 85 16 85 11 0 -5 -8 -12 -17 -15 -14 -5 -8
-14 28 -45 l44 -38 17 37 c21 49 23 77 3 70 -8 -4 -17 -2 -20 3 -5 9 35 23
106 36 18 4 69 25 113 46 76 38 101 43 77 14 -10 -12 -4 -19 31 -40 23 -14 46
-22 50 -18 3 4 10 29 13 56 7 46 7 48 -14 41 -45 -14 -18 13 41 41 34 16 94
53 132 82 38 28 73 52 78 52 12 0 10 -14 -3 -27 -9 -9 -1 -14 30 -23 23 -6 49
-14 57 -17 13 -5 15 4 12 48 -3 49 -5 54 -25 52 -33 -4 -28 9 15 37 20 13 72
61 115 105 72 74 78 78 75 51 -3 -32 -9 -29 164 -81 l47 -14 -45 92 c-53 109
-56 112 -83 98 -33 -18 -25 3 22 55 24 27 47 58 51 69 11 30 80 135 89 135 4
0 5 -11 1 -25z m-2976 -366 c121 -135 146 -204 102 -277 -51 -83 -156 -96
-252 -29 -58 40 -184 174 -174 184 3 4 12 1 18 -5 21 -21 36 -13 125 68 97 89
110 107 94 123 -13 13 -14 27 -2 27 4 0 44 -41 89 -91z m1190 -126 c20 -16
254 -18 283 -3 11 6 19 21 19 35 0 31 -16 31 328 3 l274 -22 -44 -22 c-64 -34
-213 -91 -298 -113 -186 -50 -453 -67 -641 -41 -166 23 -383 89 -501 152 l-43
23 35 3 c19 2 154 13 300 25 l265 22 3 -25 c2 -14 11 -31 20 -37z m-797 -171
c25 -13 60 -35 79 -50 32 -27 33 -29 19 -65 -16 -45 -33 -43 -37 4 -6 59 -60
99 -133 99 -35 0 -48 -6 -79 -38 -21 -21 -43 -56 -51 -81 -34 -112 78 -209
181 -156 43 22 49 -1 9 -35 -21 -18 -41 -27 -52 -24 -139 41 -240 155 -223
248 8 43 49 94 91 112 42 20 140 13 196 -14z m417 -181 c54 -24 60 -36 46 -88
-9 -32 -21 -28 -34 11 -17 51 -43 69 -108 74 -64 4 -99 -15 -128 -70 -21 -41
-20 -120 2 -157 35 -59 136 -79 183 -37 10 9 25 16 35 16 15 0 13 -6 -11 -40
-15 -22 -32 -40 -38 -40 -33 0 -146 35 -182 56 -121 71 -127 225 -10 284 57
28 168 24 245 -9z m407 -75 c38 -11 40 -14 43 -54 4 -52 -16 -57 -38 -9 -30
64 -135 74 -191 18 -55 -55 -59 -163 -8 -217 28 -29 88 -49 123 -40 14 3 42
20 61 37 20 18 38 29 42 25 3 -3 -2 -24 -12 -46 l-18 -40 -73 0 c-172 0 -278
94 -245 216 13 48 55 91 107 109 48 17 155 18 209 1z m265 -4 c0 -4 -10 -12
-22 -17 -22 -10 -23 -15 -20 -110 1 -55 5 -115 8 -132 5 -31 7 -33 49 -33 58
0 73 7 91 42 9 17 19 26 24 22 13 -14 -1 -74 -19 -83 -24 -12 -281 -24 -281
-12 0 5 12 12 26 15 l27 7 -7 124 c-7 141 -11 155 -37 155 -35 0 -20 19 19 23
71 7 142 7 142 -1z"/>
<path d="M3972 4007 l-52 -53 25 -24 c51 -48 145 -15 145 50 0 30 -34 80 -54
80 -6 0 -35 -24 -64 -53z"/>
<path d="M799 3925 c-49 -27 -46 -45 18 -103 l58 -52 23 25 c31 37 29 80 -7
116 -33 32 -53 35 -92 14z"/>
<path d="M597 3355 c20 -25 40 -45 44 -45 4 0 12 12 17 28 5 15 13 35 17 45 6
15 0 17 -54 17 l-62 0 38 -45z"/>
<path d="M2797 2335 c-3 -22 -4 -41 -2 -44 3 -2 18 10 34 28 23 25 37 31 70
31 l41 0 0 -148 c0 -153 -5 -172 -42 -172 -10 0 -18 -4 -18 -10 0 -6 40 -10
100 -10 96 0 131 11 71 23 -36 8 -41 30 -41 193 l0 124 43 0 c45 0 87 -22 87
-46 0 -8 6 -14 13 -14 8 0 11 13 9 43 l-4 42 -178 0 -178 0 -5 -40z"/>
<path d="M1850 2357 c14 -6 28 -16 32 -22 12 -16 9 -264 -2 -286 -6 -10 -20
-19 -31 -19 -11 0 -17 -4 -14 -10 3 -5 46 -10 95 -10 49 0 92 5 95 10 3 6 -4
10 -17 10 -38 0 -48 19 -48 87 l0 63 61 0 c52 0 62 -3 66 -20 10 -39 23 -19
23 35 0 54 -13 74 -23 35 -4 -17 -14 -20 -67 -20 l-61 0 3 68 3 67 57 3 c57 3
62 1 93 -43 18 -27 26 -16 18 28 l-6 37 -151 -1 c-122 0 -146 -3 -126 -12z"/>
<path d="M2190 2365 c0 -3 11 -10 25 -15 l26 -10 -3 -147 c-3 -143 -4 -148
-25 -158 -42 -18 -24 -25 67 -25 53 0 90 4 90 10 0 6 -9 10 -20 10 -31 0 -40
38 -40 160 0 114 10 160 34 160 8 0 18 5 21 10 4 6 -27 10 -84 10 -50 0 -91
-2 -91 -5z"/>
<path d="M2553 2268 c-82 -178 -107 -223 -130 -233 -40 -17 -25 -25 47 -25 40
0 70 4 70 10 0 6 -9 10 -19 10 -30 0 -33 14 -11 64 l19 46 63 0 63 0 18 -45
c19 -46 17 -65 -9 -65 -8 0 -12 -4 -9 -10 3 -5 42 -10 86 -10 46 0 79 4 79 10
0 6 -6 10 -13 10 -24 0 -43 32 -112 188 -40 90 -73 152 -81 152 -8 0 -35 -45
-61 -102z m66 -44 c11 -31 21 -58 21 -60 0 -2 -22 -4 -50 -4 -27 0 -50 3 -50
7 0 15 44 113 50 113 4 0 17 -25 29 -56z"/>
<path d="M1903 1868 l27 -10 0 -149 0 -150 -32 -14 c-30 -13 -20 -14 124 -15
86 0 159 3 162 8 10 16 18 82 10 82 -5 -1 -18 -15 -29 -33 -18 -29 -26 -32
-76 -35 -39 -2 -59 1 -68 11 -8 10 -11 57 -9 153 3 136 3 139 28 151 22 11 13
13 -70 12 -76 0 -89 -3 -67 -11z"/>
<path d="M2221 1869 c26 -10 26 -11 31 -134 5 -133 14 -159 65 -192 41 -27
162 -25 199 3 58 43 68 67 71 172 5 127 8 138 40 150 23 8 11 10 -57 10 -73 0
-80 -2 -53 -10 26 -9 34 -18 39 -45 10 -54 -1 -185 -19 -219 -37 -72 -162 -72
-195 1 -7 15 -12 73 -12 140 l0 113 28 10 c21 8 7 10 -68 10 -72 0 -89 -2 -69
-9z"/>
<path d="M2717 1865 c18 -8 54 -44 88 -89 l57 -75 -57 -68 c-32 -37 -74 -76
-94 -85 l-36 -17 85 1 c68 0 80 2 58 10 -32 11 -31 13 25 92 l35 48 47 -63 46
-63 -23 -12 c-20 -12 -10 -13 77 -13 l100 0 -37 17 c-24 11 -60 46 -102 101
l-65 84 54 62 c33 37 68 66 87 73 29 9 23 10 -47 10 -59 1 -74 -2 -57 -9 15
-6 21 -13 16 -21 -15 -25 -66 -93 -69 -93 -5 0 -75 93 -75 100 0 3 10 10 23
15 15 6 -6 9 -73 9 -89 0 -93 -1 -63 -14z"/>
<path d="M1037 1057 c-48 -45 -87 -89 -87 -98 0 -10 16 -31 35 -48 30 -26 44
-31 85 -31 41 0 55 5 85 31 48 42 69 84 61 123 -8 41 -55 106 -75 106 -9 -1
-55 -38 -104 -83z"/>
</g>
</svg>
