<?xml version="1.0" encoding="UTF-8"?>
<svg id="insta" xmlns="http://www.w3.org/2000/svg" viewBox="0 0 200 200">
  <defs>
    <style>
      .cls-1 {
        fill: #fff;
      }
    </style>
  </defs>
  <path class="cls-1" d="m100.02,15.99c-22.83,0-25.7.1-34.67.51-8.95.41-15.06,1.83-20.41,3.9-5.53,2.15-10.22,5.02-14.89,9.69-4.68,4.67-7.55,9.36-9.7,14.88-2.08,5.34-3.5,11.45-3.91,20.39-.4,8.96-.51,11.83-.51,34.64s.1,25.67.51,34.63c.41,8.94,1.83,15.05,3.91,20.39,2.15,5.53,5.02,10.21,9.7,14.88,4.67,4.67,9.36,7.55,14.89,9.7,5.35,2.08,11.46,3.49,20.41,3.9,8.97.41,11.83.51,34.66.51s25.69-.1,34.66-.51c8.95-.41,15.07-1.83,20.42-3.9,5.53-2.15,10.21-5.02,14.88-9.7,4.68-4.67,7.55-9.36,9.7-14.88,2.07-5.34,3.49-11.45,3.91-20.39.4-8.96.51-11.82.51-34.63s-.11-25.68-.51-34.64c-.42-8.94-1.84-15.05-3.91-20.39-2.15-5.53-5.03-10.21-9.7-14.88-4.68-4.67-9.35-7.54-14.89-9.69-5.36-2.08-11.47-3.49-20.42-3.9-8.97-.41-11.82-.51-34.66-.51h.03Zm-7.54,15.14c2.24,0,4.74,0,7.54,0,22.45,0,25.11.08,33.97.48,8.2.37,12.65,1.74,15.61,2.89,3.92,1.52,6.72,3.34,9.66,6.28,2.94,2.94,4.76,5.74,6.29,9.66,1.15,2.96,2.52,7.4,2.9,15.59.4,8.86.49,11.52.49,33.94s-.09,25.08-.49,33.94c-.37,8.19-1.74,12.64-2.9,15.59-1.52,3.92-3.35,6.71-6.29,9.65-2.94,2.94-5.74,4.76-9.66,6.28-2.96,1.16-7.41,2.52-15.61,2.89-8.86.4-11.53.49-33.97.49s-25.11-.09-33.97-.49c-8.2-.38-12.65-1.75-15.61-2.9-3.92-1.52-6.73-3.34-9.67-6.28-2.94-2.94-4.76-5.73-6.29-9.66-1.15-2.96-2.52-7.4-2.9-15.59-.4-8.86-.48-11.52-.48-33.95s.08-25.08.48-33.94c.37-8.19,1.74-12.64,2.9-15.6,1.52-3.92,3.35-6.72,6.29-9.66,2.94-2.94,5.75-4.76,9.67-6.29,2.96-1.16,7.41-2.52,15.61-2.9,7.76-.35,10.76-.46,26.43-.47v.02Zm52.42,13.95c-5.57,0-10.09,4.51-10.09,10.08s4.52,10.08,10.09,10.08,10.09-4.52,10.09-10.08-4.52-10.08-10.09-10.08h0Zm-44.88,11.78c-23.84,0-43.18,19.32-43.18,43.14s19.33,43.13,43.18,43.13,43.17-19.31,43.17-43.13-19.33-43.14-43.17-43.14h0Zm0,15.14c15.48,0,28.02,12.54,28.02,28s-12.55,28-28.02,28-28.02-12.54-28.02-28,12.55-28,28.02-28h0Z"/>
</svg>