<?xml version="1.0" encoding="UTF-8"?>
<svg id="in" xmlns="http://www.w3.org/2000/svg" viewBox="0 0 200 200">
  <defs>
    <style>
      .cls-1 {
        fill: #fff;
      }
    </style>
  </defs>
  <g id="layer1">
    <g id="g3019">
      <path id="path28" class="cls-1" d="m55.02,175.95v-106.27H19.7v106.27h35.32Zm-17.65-120.78c12.31,0,19.98-8.16,19.98-18.36-.23-10.43-7.67-18.36-19.75-18.36s-19.98,7.93-19.98,18.36,7.66,18.36,19.52,18.36h.23Z"/>
      <path id="path30" class="cls-1" d="m74.57,175.95h35.33v-59.35c0-3.18.23-6.35,1.16-8.62,2.55-6.35,8.36-12.92,18.12-12.92,12.78,0,17.89,9.75,17.89,24.03v56.85h35.32v-60.94c0-32.64-17.42-47.83-40.66-47.83-19.05,0-27.42,10.65-32.07,17.9h.24v-15.41h-35.33c.47,9.97,0,106.27,0,106.27h0Z"/>
    </g>
  </g>
</svg>