<?xml version="1.0" encoding="UTF-8"?>
<svg xmlns="http://www.w3.org/2000/svg" viewBox="0 0 200 200">
  <defs>
    <style>
      .cls-1 {
        fill: #fff;
      }
    </style>
    
    <symbol id="facebook">
  		<path class="cls-1" d="m139.49,110.56l5.59-34.78h-32.92v-24.22c0-9.94,3.73-17.39,18.63-17.39h16.15V2.48c-8.7-1.24-18.63-2.48-27.33-2.48-28.57,0-48.45,17.39-48.45,48.45v27.33h-31.06v34.78h31.06v89.44h40.99v-89.44h27.33Z"/>
    </symbol>

    <symbol id="instagram">
  		<path class="cls-1" d="m100.02,15.99c-22.83,0-25.7.1-34.67.51-8.95.41-15.06,1.83-20.41,3.9-5.53,2.15-10.22,5.02-14.89,9.69-4.68,4.67-7.55,9.36-9.7,14.88-2.08,5.34-3.5,11.45-3.91,20.39-.4,8.96-.51,11.83-.51,34.64s.1,25.67.51,34.63c.41,8.94,1.83,15.05,3.91,20.39,2.15,5.53,5.02,10.21,9.7,14.88,4.67,4.67,9.36,7.55,14.89,9.7,5.35,2.08,11.46,3.49,20.41,3.9,8.97.41,11.83.51,34.66.51s25.69-.1,34.66-.51c8.95-.41,15.07-1.83,20.42-3.9,5.53-2.15,10.21-5.02,14.88-9.7,4.68-4.67,7.55-9.36,9.7-14.88,2.07-5.34,3.49-11.45,3.91-20.39.4-8.96.51-11.82.51-34.63s-.11-25.68-.51-34.64c-.42-8.94-1.84-15.05-3.91-20.39-2.15-5.53-5.03-10.21-9.7-14.88-4.68-4.67-9.35-7.54-14.89-9.69-5.36-2.08-11.47-3.49-20.42-3.9-8.97-.41-11.82-.51-34.66-.51h.03Zm-7.54,15.14c2.24,0,4.74,0,7.54,0,22.45,0,25.11.08,33.97.48,8.2.37,12.65,1.74,15.61,2.89,3.92,1.52,6.72,3.34,9.66,6.28,2.94,2.94,4.76,5.74,6.29,9.66,1.15,2.96,2.52,7.4,2.9,15.59.4,8.86.49,11.52.49,33.94s-.09,25.08-.49,33.94c-.37,8.19-1.74,12.64-2.9,15.59-1.52,3.92-3.35,6.71-6.29,9.65-2.94,2.94-5.74,4.76-9.66,6.28-2.96,1.16-7.41,2.52-15.61,2.89-8.86.4-11.53.49-33.97.49s-25.11-.09-33.97-.49c-8.2-.38-12.65-1.75-15.61-2.9-3.92-1.52-6.73-3.34-9.67-6.28-2.94-2.94-4.76-5.73-6.29-9.66-1.15-2.96-2.52-7.4-2.9-15.59-.4-8.86-.48-11.52-.48-33.95s.08-25.08.48-33.94c.37-8.19,1.74-12.64,2.9-15.6,1.52-3.92,3.35-6.72,6.29-9.66,2.94-2.94,5.75-4.76,9.67-6.29,2.96-1.16,7.41-2.52,15.61-2.9,7.76-.35,10.76-.46,26.43-.47v.02Zm52.42,13.95c-5.57,0-10.09,4.51-10.09,10.08s4.52,10.08,10.09,10.08,10.09-4.52,10.09-10.08-4.52-10.08-10.09-10.08h0Zm-44.88,11.78c-23.84,0-43.18,19.32-43.18,43.14s19.33,43.13,43.18,43.13,43.17-19.31,43.17-43.13-19.33-43.14-43.17-43.14h0Zm0,15.14c15.48,0,28.02,12.54,28.02,28s-12.55,28-28.02,28-28.02-12.54-28.02-28,12.55-28,28.02-28h0Z"/>
    </symbol>

    <symbol id="linkedin">
      <path class="cls-1" d="m55.02,175.95v-106.27H19.7v106.27h35.32Zm-17.65-120.78c12.31,0,19.98-8.16,19.98-18.36-.23-10.43-7.67-18.36-19.75-18.36s-19.98,7.93-19.98,18.36,7.66,18.36,19.52,18.36h.23Z"/>
      <path class="cls-1" d="m74.57,175.95h35.33v-59.35c0-3.18.23-6.35,1.16-8.62,2.55-6.35,8.36-12.92,18.12-12.92,12.78,0,17.89,9.75,17.89,24.03v56.85h35.32v-60.94c0-32.64-17.42-47.83-40.66-47.83-19.05,0-27.42,10.65-32.07,17.9h.24v-15.41h-35.33c.47,9.97,0,106.27,0,106.27h0Z"/>
    </symbol>

    <symbol id="tiktok">
    	<path class="cls-1" d="m142.61,0h-34.34v79.94s-.03-.02-.05-.02v54.78c.03.53.05,1.07.05,1.61,0,16.07-13.03,29.1-29.1,29.1s-29.1-13.03-29.1-29.1,13.03-29.1,29.1-29.1c3.07,0,6.02.48,8.8,1.36v-35.07c-2.88-.4-5.81-.62-8.8-.62-35.04,0-63.44,28.4-63.44,63.44s28.4,63.44,63.44,63.44,63.44-28.4,63.44-63.44c0-.86-.02-1.72-.06-2.57h.06v-67c21.61,16.82,47.73,15.35,47.73,15.35v-34.32c-6.79,0-42.56-2.13-47.73-47.77Z"/>
    </symbol>
    
    <symbol id="twitter">
    	<path class="cls-1" d="m170.1,64.07c.11,1.54.11,3.14.11,4.69,0,47.81-36.4,102.91-102.91,102.91-20.52,0-39.54-5.96-55.54-16.21,2.92.33,5.74.44,8.71.44,16.93,0,32.48-5.74,44.89-15.44-15.88-.33-29.23-10.75-33.81-25.09,5.57.83,10.59.83,16.32-.66-16.54-3.36-28.95-17.92-28.95-35.52v-.44c4.8,2.7,10.42,4.36,16.32,4.58-10.08-6.7-16.12-18.01-16.1-30.11,0-6.73,1.76-12.91,4.91-18.25,17.81,21.95,44.56,36.29,74.56,37.83-5.13-24.54,13.24-44.45,35.3-44.45,10.42,0,19.8,4.36,26.42,11.42,8.16-1.54,15.99-4.58,22.94-8.71-2.7,8.38-8.38,15.44-15.88,19.91,7.28-.77,14.34-2.81,20.85-5.63-4.91,7.22-11.09,13.62-18.14,18.75Z"/>
    </symbol>
    
    <symbol id="youtube">
    	<path class="cls-1" d="m195.82,52.03c-2.3-8.61-9.07-15.38-17.68-17.68-15.59-4.18-78.14-4.18-78.14-4.18,0,0-62.54,0-78.14,4.18-8.61,2.3-15.38,9.07-17.68,17.68C0,67.62,0,100.17,0,100.17c0,0,0,32.55,4.18,48.14,2.3,8.61,9.07,15.38,17.68,17.68,15.59,4.18,78.14,4.18,78.14,4.18,0,0,62.55,0,78.14-4.18,8.61-2.3,15.38-9.07,17.68-17.68,4.18-15.59,4.18-48.14,4.18-48.14,0,0-.02-32.55-4.18-48.14Zm-115.84,78.14v-59.99l51.96,30-51.96,30Z"/>
    </symbol>
    
  </defs>
</svg>