<?xml version="1.0" encoding="UTF-8"?>
<svg id="tiktok-1c" xmlns="http://www.w3.org/2000/svg" viewBox="0 0 200 200">
  <defs>
    <style>
      .cls-1 {
        fill: #fff;
      }
    </style>
  </defs>
  <path class="cls-1" d="m142.61,0h-34.34v79.94s-.03-.02-.05-.02v54.78c.03.53.05,1.07.05,1.61,0,16.07-13.03,29.1-29.1,29.1s-29.1-13.03-29.1-29.1,13.03-29.1,29.1-29.1c3.07,0,6.02.48,8.8,1.36v-35.07c-2.88-.4-5.81-.62-8.8-.62-35.04,0-63.44,28.4-63.44,63.44s28.4,63.44,63.44,63.44,63.44-28.4,63.44-63.44c0-.86-.02-1.72-.06-2.57h.06v-67c21.61,16.82,47.73,15.35,47.73,15.35v-34.32c-6.79,0-42.56-2.13-47.73-47.77Z"/>
</svg>