<?xml version="1.0" encoding="UTF-8"?>
<svg id="twitter" xmlns="http://www.w3.org/2000/svg" viewBox="0 0 200 200">
  <defs>
    <style>
      .cls-1 {
        fill: #fff;
      }
    </style>
  </defs>
  <path class="cls-1" d="m170.1,64.07c.11,1.54.11,3.14.11,4.69,0,47.81-36.4,102.91-102.91,102.91-20.52,0-39.54-5.96-55.54-16.21,2.92.33,5.74.44,8.71.44,16.93,0,32.48-5.74,44.89-15.44-15.88-.33-29.23-10.75-33.81-25.09,5.57.83,10.59.83,16.32-.66-16.54-3.36-28.95-17.92-28.95-35.52v-.44c4.8,2.7,10.42,4.36,16.32,4.58-10.08-6.7-16.12-18.01-16.1-30.11,0-6.73,1.76-12.91,4.91-18.25,17.81,21.95,44.56,36.29,74.56,37.83-5.13-24.54,13.24-44.45,35.3-44.45,10.42,0,19.8,4.36,26.42,11.42,8.16-1.54,15.99-4.58,22.94-8.71-2.7,8.38-8.38,15.44-15.88,19.91,7.28-.77,14.34-2.81,20.85-5.63-4.91,7.22-11.09,13.62-18.14,18.75Z"/>
</svg>