<?xml version="1.0" encoding="UTF-8"?>
<svg id="youtube" xmlns="http://www.w3.org/2000/svg" viewBox="0 0 200 200">
  <defs>
    <style>
      .cls-1 {
        fill: #fff;
      }
    </style>
  </defs>
  <path class="cls-1" d="m195.82,52.03c-2.3-8.61-9.07-15.38-17.68-17.68-15.59-4.18-78.14-4.18-78.14-4.18,0,0-62.54,0-78.14,4.18-8.61,2.3-15.38,9.07-17.68,17.68C0,67.62,0,100.17,0,100.17c0,0,0,32.55,4.18,48.14,2.3,8.61,9.07,15.38,17.68,17.68,15.59,4.18,78.14,4.18,78.14,4.18,0,0,62.55,0,78.14-4.18,8.61-2.3,15.38-9.07,17.68-17.68,4.18-15.59,4.18-48.14,4.18-48.14,0,0-.02-32.55-4.18-48.14Zm-115.84,78.14v-59.99l51.96,30-51.96,30Z"/>
</svg>